<svg xmlns="http://www.w3.org/2000/svg" width="1819" height="821" viewBox="0 0 1819 821">
  <g id="Group_48" data-name="Group 48" transform="translate(-62 -141)">
    <rect id="Rectangle_30" data-name="Rectangle 30" width="1819" height="821" rx="46" transform="translate(62 141)" fill="#fff" opacity="0.945"/>
    <path id="Icon_ionic-ios-close" data-name="Icon ionic-ios-close" d="M19.589,18l4.8-4.8A1.124,1.124,0,0,0,22.8,11.616l-4.8,4.8-4.8-4.8A1.124,1.124,0,1,0,11.616,13.2l4.8,4.8-4.8,4.8A1.124,1.124,0,0,0,13.2,24.384l4.8-4.8,4.8,4.8A1.124,1.124,0,1,0,24.384,22.8Z" transform="translate(1807.557 156.5)"/>
    <text id="Inflation_in_Japan_will_likely_recede_over_the_next_year_or_so_but_could_stage_a_dramatic_rebound_later_this_decade._This_could_lead_to_much_higher_10_Japanese_bond_yields_than_Japanese_Savers_Own_Foreign_Assets_To_The_Tune_Of_6.5_Trillion_Today_TOTAL_FOR" data-name="Inflation in Japan will likely
recede over the next year or
so but could stage a dramatic
rebound later this decade.
This could lead to much higher 10 Japanese bond yields than
Japanese Savers Own Foreign Assets To The Tune Of $6.5 Trillion Today
TOTAL FOR" transform="translate(239 250)" fill="#707070" font-size="24" font-family="HelveticaNeue, Helvetica Neue"><tspan x="0" y="23">Inflation in Japan will likely</tspan><tspan x="0" y="52">recede over the next year or</tspan><tspan x="0" y="81">so but could stage a dramatic</tspan><tspan x="0" y="110">rebound later this decade.</tspan><tspan x="0" y="139">This could lead to much higher 10 Japanese bond yields than</tspan><tspan x="0" y="168">Japanese Savers Own Foreign Assets To The Tune Of $6.5 Trillion Today</tspan><tspan x="0" y="197">TOTAL FOREIGN ASSETS HELD BY JAPAN</tspan><tspan x="0" y="226">what investors are currently anticipating.</tspan><tspan x="0" y="255">• Decades of low rates in Japan created a centrifugal force of funds flowing from Japan to the rest of the world. </tspan><tspan x="0" y="284">Higher JGB yields could trigger the opposite force.</tspan><tspan x="0" y="313">Tn US$</tspan><tspan x="0" y="342">• Japanese savers today own a staggering $6.5 trillion of foreign assets. This means that once the market realizes </tspan><tspan x="0" y="371">that JGB yields are set to structurally rise (some- thing that has not happened in more than three decades), then </tspan><tspan x="0" y="400">this could kick up a storm in global markets.</tspan><tspan x="0" y="429">2023</tspan><tspan x="0" y="458">• The risk is that the reversal in capital flows could be disruptive because the accumulation of these foreign assets </tspan><tspan x="0" y="487">took place over decades, but their sale could be concentrated over a short period.</tspan><tspan x="0" y="516">• Strategic investors should remain short JGBs and long the yen to profit from the BOJ’s coming tectonic pivot.</tspan><tspan x="0" y="545">• With Japan being the largest foreign holder of US long-term securities, US Treasury yields could rise as Japan </tspan><tspan x="0" y="574">repatriates capital back home, with potentially negative knock-on effects on US stocks too.</tspan></text>
  </g>
</svg>
